<?xml version="1.0" encoding="utf-8"?>
<!-- Generator: Adobe Illustrator 19.0.0, SVG Export Plug-In . SVG Version: 6.00 Build 0)  -->
<svg version="1.1" id="Capa_1" xmlns="http://www.w3.org/2000/svg" xmlns:xlink="http://www.w3.org/1999/xlink" x="0px" y="0px"
	 viewBox="-116 384.6 361.3 72.3" style="enable-background:new -116 384.6 361.3 72.3;" xml:space="preserve">
<style type="text/css">
	.st0{fill:#FFFFFF;}
</style>
<g>
	<g>
		<path class="st0" d="M-28.5,442.6c0.2,1,0.6,1.7,1.2,2.1c0.6,0.4,1.6,0.6,2.8,0.6c0.6,0,1.2-0.1,1.6-0.2c0.4-0.1,0.8-0.3,1-0.6
			c0.2-0.2,0.4-0.5,0.5-0.8c0.1-0.3,0.2-0.7,0.2-1c0-0.3,0-0.6-0.1-0.9c-0.1-0.3-0.2-0.5-0.4-0.7c-0.2-0.2-0.4-0.4-0.8-0.6
			c-0.3-0.2-0.8-0.3-1.3-0.4l-1.6-0.3c-0.6-0.1-1.2-0.2-1.6-0.4c-0.5-0.2-0.9-0.4-1.2-0.7c-0.3-0.3-0.6-0.6-0.8-1
			c-0.2-0.4-0.3-0.9-0.3-1.5c0-0.6,0.1-1.1,0.4-1.5c0.2-0.4,0.6-0.8,1-1.1c0.4-0.3,0.9-0.5,1.4-0.6c0.5-0.1,1.1-0.2,1.7-0.2
			c0.8,0,1.5,0.1,2,0.3c0.5,0.2,1,0.4,1.3,0.7c0.3,0.3,0.6,0.6,0.8,1c0.2,0.4,0.3,0.7,0.4,1.1l-1,0.3c-0.1-0.4-0.3-0.7-0.4-1
			c-0.2-0.3-0.4-0.5-0.6-0.7c-0.3-0.2-0.6-0.4-1-0.5c-0.4-0.1-0.9-0.2-1.5-0.2c-0.7,0-1.2,0.1-1.6,0.2c-0.4,0.1-0.8,0.3-1.1,0.5
			c-0.3,0.2-0.5,0.5-0.6,0.8c-0.1,0.3-0.2,0.6-0.2,1c0,0.4,0,0.7,0.1,0.9c0.1,0.3,0.2,0.5,0.4,0.7c0.2,0.2,0.5,0.4,0.8,0.5
			c0.3,0.1,0.8,0.2,1.3,0.3l1.8,0.3c0.6,0.1,1.2,0.3,1.7,0.5c0.5,0.2,0.9,0.4,1.2,0.7c0.3,0.3,0.5,0.6,0.7,1.1
			c0.1,0.4,0.2,0.9,0.2,1.4c0,0.5-0.1,1-0.3,1.4c-0.2,0.4-0.5,0.8-0.8,1.1c-0.4,0.3-0.8,0.6-1.4,0.8s-1.2,0.3-1.9,0.3
			c-0.7,0-1.3-0.1-1.9-0.2c-0.6-0.1-1.1-0.3-1.5-0.6c-0.4-0.3-0.8-0.7-1.1-1.1c-0.3-0.5-0.5-1-0.5-1.7H-28.5z"/>
		<path class="st0" d="M-7.6,441.9c-0.1,0.6-0.2,1.2-0.5,1.8c-0.2,0.5-0.6,1-1,1.4c-0.4,0.4-0.9,0.7-1.5,0.9
			c-0.6,0.2-1.3,0.3-2.1,0.3c-0.8,0-1.6-0.1-2.3-0.4c-0.7-0.3-1.3-0.7-1.8-1.3c-0.5-0.6-0.9-1.3-1.1-2.1c-0.3-0.8-0.4-1.8-0.4-2.9
			c0-1.1,0.1-2.1,0.4-2.9c0.3-0.8,0.7-1.6,1.2-2.1c0.5-0.6,1.1-1,1.8-1.3c0.7-0.3,1.4-0.4,2.1-0.4c0.8,0,1.4,0.1,2,0.3
			c0.6,0.2,1,0.5,1.4,0.9c0.4,0.4,0.7,0.8,0.9,1.3c0.2,0.5,0.4,1.1,0.6,1.6l-1,0.2c-0.1-0.5-0.3-1-0.5-1.4s-0.4-0.8-0.7-1.1
			c-0.3-0.3-0.7-0.5-1.1-0.7c-0.4-0.2-0.9-0.2-1.5-0.2c-0.7,0-1.3,0.1-1.9,0.4c-0.5,0.3-1,0.7-1.4,1.2c-0.4,0.5-0.7,1.1-0.9,1.8
			c-0.2,0.7-0.3,1.5-0.3,2.3c0,0.9,0.1,1.6,0.3,2.3c0.2,0.7,0.5,1.3,0.9,1.8c0.4,0.5,0.8,0.9,1.4,1.2c0.6,0.3,1.2,0.4,1.9,0.4
			c0.7,0,1.3-0.1,1.7-0.3c0.5-0.2,0.8-0.4,1.2-0.7c0.3-0.3,0.5-0.7,0.7-1.1c0.2-0.4,0.3-0.9,0.4-1.4H-7.6z"/>
		<path class="st0" d="M-1.6,433.1h1.3l5,12.9H3.5L1.9,442H-4l-1.5,3.9h-1.1L-1.6,433.1z M1.5,441l-2.6-6.7l-2.6,6.7H1.5z"/>
		<path class="st0" d="M6.3,433.1h1.1V445h6.9l-0.2,1H6.3V433.1z"/>
		<path class="st0" d="M16,433.1h7.9v1h-6.9v4.7h6.5v1h-6.5v5.1h7.2l-0.2,1h-8V433.1z"/>
		<path class="st0" d="M30.4,433.1h1.1V446h-1.1V433.1z"/>
		<path class="st0" d="M34.4,433.1h1.4l4.6,11.6l4.6-11.6h1.3V446h-1v-11c-0.1,0.1-0.2,0.6-0.6,1.4c-0.1,0.3-0.3,0.8-0.5,1.3
			c-0.2,0.5-0.5,1.2-0.8,2c-0.3,0.8-0.7,1.7-1.1,2.7c-0.4,1-0.9,2.3-1.5,3.6h-1l-4.4-11v11h-1V433.1z"/>
		<path class="st0" d="M49.2,433.1h4.1c0.9,0,1.7,0.1,2.3,0.3c0.6,0.2,1.1,0.5,1.4,0.8c0.3,0.3,0.6,0.7,0.7,1.2
			c0.1,0.5,0.2,0.9,0.2,1.4c0,0.5-0.1,1-0.2,1.5c-0.1,0.5-0.4,0.9-0.7,1.3c-0.3,0.4-0.8,0.6-1.4,0.9c-0.6,0.2-1.3,0.3-2.3,0.3h-3
			v5.2h-1.1V433.1z M53.2,439.8c0.7,0,1.3-0.1,1.7-0.2c0.4-0.1,0.8-0.3,1.1-0.6c0.3-0.3,0.4-0.6,0.5-0.9s0.1-0.8,0.1-1.2
			c0-0.5-0.1-0.9-0.2-1.2c-0.1-0.3-0.3-0.6-0.6-0.9c-0.3-0.2-0.6-0.4-1.1-0.5c-0.4-0.1-1-0.2-1.7-0.2h-3v5.7H53.2z"/>
		<path class="st0" d="M62.4,433.1h1.3l5,12.9h-1.2L66,442H60l-1.5,3.9h-1.1L62.4,433.1z M65.6,441l-2.6-6.7l-2.6,6.7H65.6z"/>
		<path class="st0" d="M80,441.9c-0.1,0.6-0.2,1.2-0.5,1.8c-0.2,0.5-0.6,1-1,1.4c-0.4,0.4-0.9,0.7-1.5,0.9c-0.6,0.2-1.3,0.3-2.1,0.3
			c-0.8,0-1.6-0.1-2.3-0.4c-0.7-0.3-1.3-0.7-1.8-1.3c-0.5-0.6-0.9-1.3-1.1-2.1c-0.3-0.8-0.4-1.8-0.4-2.9c0-1.1,0.1-2.1,0.4-2.9
			c0.3-0.8,0.7-1.6,1.2-2.1c0.5-0.6,1.1-1,1.8-1.3c0.7-0.3,1.4-0.4,2.1-0.4c0.8,0,1.4,0.1,2,0.3c0.6,0.2,1,0.5,1.4,0.9
			c0.4,0.4,0.7,0.8,0.9,1.3c0.2,0.5,0.4,1.1,0.6,1.6l-1,0.2c-0.1-0.5-0.3-1-0.5-1.4c-0.2-0.4-0.4-0.8-0.7-1.1
			c-0.3-0.3-0.7-0.5-1.1-0.7c-0.4-0.2-0.9-0.2-1.5-0.2c-0.7,0-1.3,0.1-1.9,0.4c-0.5,0.3-1,0.7-1.4,1.2c-0.4,0.5-0.7,1.1-0.9,1.8
			c-0.2,0.7-0.3,1.5-0.3,2.3c0,0.9,0.1,1.6,0.3,2.3c0.2,0.7,0.5,1.3,0.8,1.8c0.4,0.5,0.8,0.9,1.4,1.2c0.6,0.3,1.2,0.4,1.9,0.4
			c0.7,0,1.3-0.1,1.7-0.3c0.5-0.2,0.8-0.4,1.2-0.7c0.3-0.3,0.5-0.7,0.7-1.1c0.2-0.4,0.3-0.9,0.4-1.4H80z"/>
		<path class="st0" d="M85.1,434.1h-4.4v-1h9.8v1h-4.4V446h-1.1V434.1z"/>
		<path class="st0" d="M103.2,444.7c-0.4,0.5-0.9,0.9-1.6,1.2c-0.6,0.3-1.3,0.4-2.1,0.4c-0.8,0-1.5-0.1-2-0.3
			c-0.5-0.2-1-0.5-1.3-0.8c-0.3-0.3-0.6-0.7-0.7-1.1c-0.1-0.4-0.2-0.9-0.2-1.4c0-0.5,0.1-0.9,0.2-1.3c0.2-0.4,0.4-0.7,0.6-1.1
			c0.3-0.3,0.6-0.6,0.9-0.8c0.3-0.2,0.7-0.5,1.1-0.7c-0.2-0.2-0.3-0.4-0.5-0.6c-0.2-0.2-0.3-0.5-0.4-0.7c-0.1-0.3-0.2-0.5-0.3-0.8
			c-0.1-0.3-0.1-0.6-0.1-0.9c0-0.4,0.1-0.7,0.2-1s0.3-0.6,0.6-0.8c0.2-0.2,0.5-0.4,0.9-0.6c0.3-0.1,0.7-0.2,1.1-0.2
			c0.4,0,0.8,0.1,1.2,0.2c0.3,0.1,0.6,0.3,0.8,0.6c0.2,0.2,0.4,0.5,0.5,0.8c0.1,0.3,0.2,0.6,0.2,1c0,0.5-0.1,0.9-0.2,1.2
			c-0.1,0.3-0.3,0.6-0.6,0.9c-0.2,0.3-0.5,0.5-0.8,0.7c-0.3,0.2-0.6,0.4-1,0.6l3.4,4.1c0.2-0.5,0.3-0.9,0.4-1.4
			c0.1-0.4,0.1-1,0.2-1.5h1c0,0.7-0.1,1.4-0.3,2c-0.2,0.6-0.4,1.2-0.7,1.7l1.8,2.1h-1.3L103.2,444.7z M98.8,439.4
			c-0.3,0.2-0.6,0.4-0.9,0.6c-0.3,0.2-0.5,0.4-0.8,0.7c-0.2,0.2-0.4,0.5-0.5,0.8c-0.1,0.3-0.2,0.7-0.2,1c0,0.4,0.1,0.8,0.2,1.1
			c0.1,0.3,0.3,0.7,0.5,0.9c0.2,0.3,0.6,0.5,1,0.6c0.4,0.1,0.9,0.2,1.6,0.2c0.7,0,1.3-0.1,1.7-0.4c0.5-0.3,0.9-0.6,1.2-1L98.8,439.4
			z M99.1,438.3c0.2-0.1,0.5-0.3,0.8-0.4c0.3-0.2,0.5-0.3,0.7-0.6c0.2-0.2,0.4-0.4,0.5-0.7c0.1-0.3,0.2-0.6,0.2-0.9
			c0-0.6-0.2-1.1-0.5-1.3c-0.3-0.3-0.7-0.4-1.2-0.4c-0.6,0-1,0.2-1.3,0.5c-0.3,0.3-0.5,0.8-0.5,1.3c0,0.5,0.1,1,0.4,1.4
			C98.5,437.5,98.8,437.9,99.1,438.3z"/>
		<path class="st0" d="M111,433.1h4c0.9,0,1.7,0.1,2.2,0.3c0.6,0.2,1,0.5,1.4,0.8s0.6,0.7,0.7,1.1s0.2,0.8,0.2,1.3
			c0,0.8-0.2,1.5-0.5,2.1c-0.4,0.6-0.9,1-1.8,1.3l2.7,6h-1.3l-2.5-5.7c-0.2,0-0.4,0-0.6,0.1c-0.2,0-0.4,0-0.7,0h-2.7v5.6H111V433.1z
			 M115.1,439.4c0.6,0,1.2-0.1,1.6-0.2c0.4-0.1,0.8-0.3,1-0.5c0.2-0.2,0.4-0.5,0.5-0.9c0.1-0.3,0.2-0.7,0.2-1.2
			c0-0.4-0.1-0.8-0.2-1.1s-0.3-0.6-0.6-0.8c-0.3-0.2-0.6-0.4-1.1-0.5c-0.4-0.1-1-0.2-1.7-0.2h-2.8v5.3H115.1z"/>
		<path class="st0" d="M122,433.1h7.9v1h-6.9v4.7h6.5v1h-6.5v5.1h7.2l-0.2,1h-8V433.1z"/>
		<path class="st0" d="M132.4,433.1h4.3c0.9,0,1.7,0.1,2.4,0.4c0.7,0.3,1.3,0.6,1.8,1.2c0.5,0.5,0.9,1.2,1.1,2
			c0.3,0.8,0.4,1.7,0.4,2.8c0,1.1-0.1,2.1-0.4,2.9c-0.3,0.8-0.7,1.5-1.2,2c-0.5,0.5-1.2,0.9-1.9,1.2c-0.8,0.3-1.6,0.4-2.5,0.4h-3.9
			V433.1z M136.3,445c1.7,0,2.9-0.5,3.7-1.4c0.8-1,1.2-2.3,1.2-4.1c0-1.7-0.4-3.1-1.1-4c-0.7-0.9-1.9-1.4-3.5-1.4h-3.2V445H136.3z"
			/>
		<path class="st0" d="M144.7,433.1h1.1v7.9c0,1.5,0.3,2.6,0.8,3.3c0.6,0.7,1.5,1.1,2.8,1.1c0.7,0,1.2-0.1,1.6-0.3
			c0.4-0.2,0.8-0.5,1.1-0.8c0.3-0.4,0.5-0.8,0.6-1.4c0.1-0.5,0.2-1.2,0.2-1.9v-7.9h1.1v7.8c0,1-0.1,1.8-0.3,2.4
			c-0.2,0.7-0.5,1.2-0.9,1.7c-0.4,0.4-0.9,0.8-1.5,1c-0.6,0.2-1.2,0.3-1.9,0.3c-0.7,0-1.4-0.1-2-0.3c-0.6-0.2-1.1-0.5-1.5-1
			c-0.4-0.4-0.7-1-0.9-1.7c-0.2-0.7-0.3-1.5-0.3-2.5V433.1z"/>
		<path class="st0" d="M166.9,441.9c-0.1,0.6-0.2,1.2-0.5,1.8c-0.2,0.5-0.6,1-1,1.4c-0.4,0.4-0.9,0.7-1.5,0.9
			c-0.6,0.2-1.3,0.3-2.1,0.3c-0.8,0-1.6-0.1-2.3-0.4c-0.7-0.3-1.3-0.7-1.8-1.3c-0.5-0.6-0.9-1.3-1.1-2.1c-0.3-0.8-0.4-1.8-0.4-2.9
			c0-1.1,0.1-2.1,0.4-2.9c0.3-0.8,0.7-1.6,1.2-2.1c0.5-0.6,1.1-1,1.8-1.3c0.7-0.3,1.4-0.4,2.1-0.4c0.8,0,1.4,0.1,2,0.3
			c0.6,0.2,1,0.5,1.4,0.9c0.4,0.4,0.7,0.8,0.9,1.3s0.4,1.1,0.6,1.6l-1,0.2c-0.1-0.5-0.3-1-0.5-1.4c-0.2-0.4-0.4-0.8-0.7-1.1
			c-0.3-0.3-0.7-0.5-1.1-0.7c-0.4-0.2-0.9-0.2-1.5-0.2c-0.7,0-1.3,0.1-1.9,0.4c-0.5,0.3-1,0.7-1.4,1.2c-0.4,0.5-0.7,1.1-0.9,1.8
			s-0.3,1.5-0.3,2.3c0,0.9,0.1,1.6,0.3,2.3c0.2,0.7,0.5,1.3,0.9,1.8c0.4,0.5,0.8,0.9,1.4,1.2c0.6,0.3,1.2,0.4,1.9,0.4
			c0.7,0,1.3-0.1,1.7-0.3c0.5-0.2,0.9-0.4,1.2-0.7c0.3-0.3,0.5-0.7,0.7-1.1c0.2-0.4,0.3-0.9,0.4-1.4H166.9z"/>
		<path class="st0" d="M169.3,433.1h7.9v1h-6.9v4.7h6.5v1h-6.5v5.1h7.2l-0.2,1h-8V433.1z"/>
		<path class="st0" d="M183.7,433.1h4.3c0.9,0,1.7,0.1,2.4,0.4c0.7,0.3,1.3,0.6,1.8,1.2c0.5,0.5,0.9,1.2,1.1,2
			c0.3,0.8,0.4,1.7,0.4,2.8c0,1.1-0.1,2.1-0.4,2.9c-0.3,0.8-0.7,1.5-1.2,2c-0.5,0.5-1.2,0.9-1.9,1.2c-0.8,0.3-1.6,0.4-2.5,0.4h-3.9
			V433.1z M187.6,445c1.7,0,2.9-0.5,3.7-1.4c0.8-1,1.2-2.3,1.2-4.1c0-1.7-0.4-3.1-1.1-4c-0.7-0.9-1.9-1.4-3.5-1.4h-3.2V445H187.6z"
			/>
		<path class="st0" d="M196.1,433.1h4c0.9,0,1.7,0.1,2.2,0.3c0.6,0.2,1,0.5,1.4,0.8c0.3,0.3,0.6,0.7,0.7,1.1s0.2,0.8,0.2,1.3
			c0,0.8-0.2,1.5-0.5,2.1c-0.4,0.6-0.9,1-1.8,1.3l2.7,6h-1.3l-2.5-5.7c-0.2,0-0.4,0-0.6,0.1c-0.2,0-0.4,0-0.7,0h-2.7v5.6h-1.1V433.1
			z M200.2,439.4c0.6,0,1.2-0.1,1.6-0.2c0.4-0.1,0.8-0.3,1-0.5c0.2-0.2,0.4-0.5,0.5-0.9c0.1-0.3,0.2-0.7,0.2-1.2
			c0-0.4-0.1-0.8-0.2-1.1s-0.3-0.6-0.6-0.8s-0.6-0.4-1.1-0.5c-0.4-0.1-1-0.2-1.7-0.2h-2.8v5.3H200.2z"/>
		<path class="st0" d="M211.1,433.1h1.3l5,12.9h-1.2l-1.5-3.9h-5.9l-1.5,3.9h-1.1L211.1,433.1z M214.3,441l-2.6-6.7l-2.6,6.7H214.3z
			"/>
		<path class="st0" d="M219,433.1h1.4l4.6,11.6l4.6-11.6h1.3V446h-1v-11c-0.1,0.1-0.2,0.6-0.6,1.4c-0.1,0.3-0.3,0.8-0.5,1.3
			c-0.2,0.5-0.5,1.2-0.8,2c-0.3,0.8-0.7,1.7-1.1,2.7c-0.4,1-0.9,2.3-1.5,3.6h-1l-4.4-11v11h-1V433.1z"/>
		<path class="st0" d="M237.6,433.1h1.3l5,12.9h-1.2l-1.5-3.9h-5.9l-1.5,3.9h-1.1L237.6,433.1z M240.8,441l-2.6-6.7l-2.6,6.7H240.8z
			"/>
	</g>
	<g>
		<path class="st0" d="M-19.5,414.6h7.8v8.4c-0.5,0.5-1.1,0.9-1.7,1.3c-0.6,0.4-1.3,0.7-2,0.9c-0.7,0.2-1.4,0.4-2.1,0.5
			c-0.7,0.1-1.4,0.2-2.1,0.2c-1.5,0-2.9-0.2-4.1-0.7c-1.2-0.5-2.2-1.2-3.1-2.2c-0.8-1-1.5-2.1-1.9-3.6c-0.4-1.4-0.7-3-0.7-4.8
			c0-1.9,0.2-3.5,0.7-4.9c0.5-1.4,1.2-2.6,2-3.6c0.8-1,1.8-1.7,3-2.2c1.2-0.5,2.4-0.7,3.7-0.7c2.2,0,4,0.5,5.2,1.6s2.1,2.5,2.6,4.4
			l-1.7,0.4c-0.2-0.7-0.5-1.3-0.8-1.9c-0.3-0.6-0.7-1.1-1.2-1.5c-0.5-0.4-1.1-0.7-1.7-1c-0.7-0.2-1.5-0.3-2.4-0.3
			c-1.2,0-2.3,0.2-3.3,0.7c-0.9,0.5-1.7,1.2-2.4,2c-0.6,0.9-1.1,1.9-1.4,3.1c-0.3,1.2-0.5,2.5-0.5,3.9c0,1.4,0.2,2.7,0.5,3.9
			c0.3,1.2,0.8,2.2,1.5,3.1c0.7,0.9,1.5,1.5,2.5,2c1,0.5,2.1,0.7,3.5,0.7c1.1,0,2.2-0.2,3.3-0.5c1.1-0.3,2-0.8,2.9-1.4v-6.1h-6.1
			V414.6z"/>
		<path class="st0" d="M-7.8,403.6h6.7c1.5,0,2.8,0.2,3.8,0.5c1,0.3,1.8,0.8,2.3,1.3c0.6,0.5,1,1.2,1.2,1.9c0.2,0.7,0.3,1.4,0.3,2.2
			c0,1.4-0.3,2.6-0.9,3.5c-0.6,1-1.6,1.7-3,2.2l4.6,10.1H5l-4.3-9.6c-0.3,0-0.7,0.1-1,0.1c-0.4,0-0.7,0-1.1,0H-6v9.5h-1.8V403.6z
			 M-0.9,414.2c1.1,0,2-0.1,2.7-0.3c0.7-0.2,1.3-0.5,1.7-0.9c0.4-0.4,0.7-0.9,0.9-1.5c0.2-0.6,0.3-1.2,0.3-1.9
			c0-0.7-0.1-1.3-0.3-1.9c-0.2-0.5-0.5-1-0.9-1.3s-1-0.6-1.8-0.8c-0.7-0.2-1.7-0.3-2.8-0.3H-6v8.9H-0.9z"/>
		<path class="st0" d="M18.6,425.9c-1.4,0-2.6-0.2-3.8-0.7s-2.2-1.2-3.1-2.1c-0.9-1-1.5-2.1-2-3.6c-0.5-1.4-0.7-3.1-0.7-4.9
			c0-1.9,0.2-3.5,0.7-4.9c0.5-1.4,1.2-2.6,2-3.6c0.9-1,1.9-1.7,3.1-2.2c1.2-0.5,2.4-0.7,3.8-0.7c1.4,0,2.6,0.2,3.8,0.7
			c1.2,0.5,2.2,1.2,3,2.1c0.8,1,1.5,2.1,2,3.5c0.5,1.4,0.7,3,0.7,4.9c0,1.9-0.2,3.5-0.7,5c-0.5,1.4-1.1,2.6-2,3.6
			c-0.8,1-1.9,1.7-3,2.2C21.3,425.6,20,425.9,18.6,425.9z M18.6,424.3c1.3,0,2.4-0.2,3.3-0.7c1-0.5,1.8-1.1,2.4-2
			c0.6-0.9,1.1-1.9,1.5-3.1c0.3-1.2,0.5-2.5,0.5-4c0-1.4-0.2-2.8-0.5-4c-0.3-1.2-0.8-2.2-1.5-3.1c-0.6-0.9-1.4-1.5-2.4-2
			c-1-0.5-2-0.7-3.3-0.7c-1.3,0-2.4,0.2-3.4,0.7c-1,0.5-1.8,1.1-2.4,2c-0.6,0.9-1.1,1.9-1.4,3.1c-0.3,1.2-0.5,2.5-0.5,4
			c0,1.4,0.2,2.8,0.5,4c0.3,1.2,0.8,2.2,1.4,3.1c0.6,0.9,1.5,1.5,2.4,2C16.2,424,17.3,424.3,18.6,424.3z"/>
		<path class="st0" d="M29.1,403.6h2l5,19.4l5.3-19.3h2l5.1,19.3l5.1-19.4h1.9l-6,21.7h-2.1L42.2,406l-5.1,19.3h-2L29.1,403.6z"/>
		<path class="st0" d="M64.3,405.3h-7.4v-1.7h16.5v1.7h-7.4v20h-1.8V405.3z"/>
		<path class="st0" d="M75.9,403.6h1.8v9.6h12.1v-9.6h1.8v21.7h-1.8V415H77.7v10.4h-1.8V403.6z"/>
		<path class="st0" d="M108.4,403.6h1.8v21.7h-1.8V403.6z"/>
		<path class="st0" d="M114.5,403.6h2l11.9,18.8v-18.8h1.8v21.7h-2l-11.9-18.8v18.8h-1.8V403.6z"/>
		<path class="st0" d="M135.2,419.7c0.3,1.6,1,2.8,2.1,3.5c1.1,0.7,2.6,1.1,4.7,1.1c1.1,0,2-0.1,2.7-0.4c0.7-0.2,1.3-0.6,1.7-1
			c0.4-0.4,0.7-0.9,0.9-1.4c0.2-0.5,0.3-1.1,0.3-1.7c0-0.5-0.1-1-0.2-1.4c-0.1-0.5-0.3-0.9-0.6-1.2c-0.3-0.4-0.7-0.7-1.3-1
			c-0.6-0.3-1.3-0.5-2.3-0.7l-2.7-0.5c-1-0.2-2-0.4-2.8-0.7c-0.8-0.3-1.5-0.7-2-1.1c-0.6-0.5-1-1-1.3-1.7c-0.3-0.7-0.4-1.5-0.4-2.5
			c0-1,0.2-1.9,0.6-2.6c0.4-0.7,1-1.3,1.6-1.8s1.5-0.8,2.4-1.1c0.9-0.2,1.9-0.3,2.9-0.3c1.3,0,2.4,0.2,3.3,0.4
			c0.9,0.3,1.6,0.7,2.2,1.2c0.6,0.5,1,1,1.3,1.7c0.3,0.6,0.6,1.2,0.7,1.9l-1.7,0.5c-0.2-0.6-0.4-1.2-0.7-1.7
			c-0.3-0.5-0.6-0.9-1.1-1.3c-0.4-0.3-1-0.6-1.7-0.8c-0.7-0.2-1.5-0.3-2.5-0.3c-1.1,0-2,0.1-2.7,0.3c-0.7,0.2-1.3,0.5-1.8,0.9
			c-0.5,0.4-0.8,0.8-1,1.3c-0.2,0.5-0.3,1.1-0.3,1.7c0,0.6,0.1,1.1,0.2,1.6c0.1,0.4,0.4,0.8,0.7,1.2c0.3,0.3,0.8,0.6,1.4,0.8
			c0.6,0.2,1.3,0.4,2.1,0.6l3,0.5c1.1,0.2,2,0.5,2.8,0.8c0.8,0.3,1.4,0.7,2,1.2c0.5,0.5,0.9,1.1,1.2,1.8c0.2,0.7,0.4,1.5,0.4,2.4
			c0,0.8-0.2,1.6-0.5,2.4c-0.3,0.7-0.8,1.4-1.4,1.9c-0.6,0.5-1.4,1-2.3,1.3c-0.9,0.3-2,0.5-3.3,0.5c-1.2,0-2.2-0.1-3.2-0.3
			c-1-0.2-1.8-0.6-2.6-1.1c-0.7-0.5-1.4-1.1-1.8-1.9c-0.5-0.8-0.8-1.8-0.9-2.9H135.2z"/>
		<path class="st0" d="M158.2,405.3h-7.4v-1.7h16.5v1.7H160v20h-1.8V405.3z"/>
		<path class="st0" d="M169.9,403.6h1.8v21.7h-1.8V403.6z"/>
		<path class="st0" d="M181.5,405.3h-7.4v-1.7h16.5v1.7h-7.4v20h-1.8V405.3z"/>
		<path class="st0" d="M193,403.6h1.8v13.2c0,2.5,0.5,4.3,1.4,5.5c0.9,1.2,2.5,1.9,4.6,1.9c1.1,0,2-0.2,2.8-0.5
			c0.7-0.3,1.4-0.8,1.8-1.4c0.5-0.6,0.8-1.4,1-2.3s0.3-2,0.3-3.2v-13.2h1.8v13.2c0,1.6-0.2,3-0.5,4.1c-0.3,1.1-0.9,2.1-1.5,2.8
			c-0.7,0.7-1.5,1.3-2.4,1.6c-1,0.3-2.1,0.5-3.3,0.5c-1.3,0-2.4-0.2-3.3-0.5c-1-0.3-1.8-0.9-2.4-1.6c-0.7-0.7-1.2-1.7-1.5-2.9
			c-0.3-1.2-0.5-2.6-0.5-4.2V403.6z"/>
		<path class="st0" d="M218.4,405.3H211v-1.7h16.5v1.7h-7.4v20h-1.8V405.3z"/>
		<path class="st0" d="M230,403.6h13.3v1.6h-11.6v8h11v1.7h-11v8.6h12.1l-0.4,1.7H230V403.6z"/>
	</g>
	<path class="st0" d="M-46.2,398.9v52.6c0,1.9-1.5,3.4-3.4,3.4h-58.2c8.8-2.2,25.2-9,33.1-30.5C-67.3,404.2-54.2,399.7-46.2,398.9z
		 M-86,416.8c5.8-16.6,19.3-27.3,32.8-30.3h-58c-1.9,0-3.4,1.5-3.4,3.4v52.5C-112.4,442.2-94.3,440.3-86,416.8z"/>
</g>
</svg>
